<svg width="242" height="30" viewBox="0 0 242 30" fill="none" xmlns="http://www.w3.org/2000/svg">
<g filter="url(#filter0_d)">
<path d="M51.3266 23C51.0546 22.28 50.7986 21.576 50.5586 20.888C50.3186 20.184 50.0706 19.472 49.8146 18.752H42.2786L40.7666 23H38.3426C38.9826 21.24 39.5826 19.616 40.1426 18.128C40.7026 16.624 41.2466 15.2 41.7746 13.856C42.3186 12.512 42.8546 11.232 43.3826 10.016C43.9106 8.784 44.4626 7.568 45.0386 6.368H47.1746C47.7506 7.568 48.3026 8.784 48.8306 10.016C49.3586 11.232 49.8866 12.512 50.4146 13.856C50.9586 15.2 51.5106 16.624 52.0706 18.128C52.6306 19.616 53.2306 21.24 53.8706 23H51.3266ZM49.1426 16.832C48.6306 15.44 48.1186 14.096 47.6066 12.8C47.1106 11.488 46.5906 10.232 46.0466 9.032C45.4866 10.232 44.9506 11.488 44.4386 12.8C43.9426 14.096 43.4466 15.44 42.9506 16.832H49.1426ZM61.3127 10.256C61.5047 10.256 61.7207 10.272 61.9607 10.304C62.2167 10.32 62.4647 10.352 62.7047 10.4C62.9447 10.432 63.1607 10.472 63.3527 10.52C63.5607 10.552 63.7127 10.584 63.8087 10.616L63.4247 12.56C63.2487 12.496 62.9527 12.424 62.5367 12.344C62.1367 12.248 61.6167 12.2 60.9767 12.2C60.5607 12.2 60.1447 12.248 59.7287 12.344C59.3287 12.424 59.0647 12.48 58.9367 12.512V23H56.7047V11.048C57.2327 10.856 57.8887 10.68 58.6727 10.52C59.4567 10.344 60.3367 10.256 61.3127 10.256ZM68.7705 10.52H73.4985V12.392H68.7705V18.152C68.7705 18.776 68.8185 19.296 68.9145 19.712C69.0105 20.112 69.1545 20.432 69.3465 20.672C69.5385 20.896 69.7785 21.056 70.0665 21.152C70.3545 21.248 70.6905 21.296 71.0745 21.296C71.7465 21.296 72.2825 21.224 72.6825 21.08C73.0985 20.92 73.3865 20.808 73.5465 20.744L73.9785 22.592C73.7545 22.704 73.3625 22.84 72.8025 23C72.2425 23.176 71.6025 23.264 70.8825 23.264C70.0345 23.264 69.3305 23.16 68.7705 22.952C68.2265 22.728 67.7865 22.4 67.4505 21.968C67.1145 21.536 66.8745 21.008 66.7305 20.384C66.6025 19.744 66.5385 19.008 66.5385 18.176V7.04L68.7705 6.656V10.52ZM86.9948 22.64C86.4828 22.768 85.8028 22.904 84.9548 23.048C84.1228 23.192 83.1548 23.264 82.0508 23.264C81.0908 23.264 80.2828 23.128 79.6268 22.856C78.9708 22.568 78.4428 22.168 78.0428 21.656C77.6428 21.144 77.3548 20.544 77.1788 19.856C77.0028 19.152 76.9148 18.376 76.9148 17.528V10.52H79.1468V17.048C79.1468 18.568 79.3868 19.656 79.8668 20.312C80.3468 20.968 81.1548 21.296 82.2908 21.296C82.5308 21.296 82.7788 21.288 83.0348 21.272C83.2908 21.256 83.5308 21.24 83.7548 21.224C83.9788 21.192 84.1788 21.168 84.3548 21.152C84.5468 21.12 84.6828 21.088 84.7628 21.056V10.52H86.9948V22.64ZM96.168 10.256C96.36 10.256 96.576 10.272 96.816 10.304C97.072 10.32 97.32 10.352 97.56 10.4C97.8 10.432 98.016 10.472 98.208 10.52C98.416 10.552 98.568 10.584 98.664 10.616L98.28 12.56C98.104 12.496 97.808 12.424 97.392 12.344C96.992 12.248 96.472 12.2 95.832 12.2C95.416 12.2 95 12.248 94.584 12.344C94.184 12.424 93.92 12.48 93.792 12.512V23H91.56V11.048C92.088 10.856 92.744 10.68 93.528 10.52C94.312 10.344 95.192 10.256 96.168 10.256ZM112.373 6.2C114.709 6.2 116.501 6.648 117.749 7.544C119.013 8.424 119.645 9.744 119.645 11.504C119.645 12.464 119.469 13.288 119.117 13.976C118.781 14.648 118.285 15.2 117.629 15.632C116.989 16.048 116.205 16.352 115.277 16.544C114.349 16.736 113.301 16.832 112.133 16.832H110.285V23H107.957V6.608C108.613 6.448 109.341 6.344 110.141 6.296C110.957 6.232 111.701 6.2 112.373 6.2ZM112.565 8.24C111.573 8.24 110.813 8.264 110.285 8.312V14.84H112.037C112.837 14.84 113.557 14.792 114.197 14.696C114.837 14.584 115.373 14.408 115.805 14.168C116.253 13.912 116.597 13.568 116.837 13.136C117.077 12.704 117.197 12.152 117.197 11.48C117.197 10.84 117.069 10.312 116.813 9.896C116.573 9.48 116.237 9.152 115.805 8.912C115.389 8.656 114.901 8.48 114.341 8.384C113.781 8.288 113.189 8.24 112.565 8.24ZM121.904 25.328C122.08 25.408 122.304 25.48 122.576 25.544C122.864 25.624 123.144 25.664 123.416 25.664C124.296 25.664 124.984 25.464 125.48 25.064C125.976 24.68 126.424 24.048 126.824 23.168C125.816 21.248 124.872 19.216 123.992 17.072C123.128 14.912 122.408 12.728 121.832 10.52H124.232C124.408 11.24 124.616 12.016 124.856 12.848C125.112 13.68 125.392 14.536 125.696 15.416C126 16.296 126.328 17.176 126.68 18.056C127.032 18.936 127.4 19.784 127.784 20.6C128.392 18.92 128.92 17.256 129.368 15.608C129.816 13.96 130.24 12.264 130.64 10.52H132.944C132.368 12.872 131.728 15.136 131.024 17.312C130.32 19.472 129.56 21.496 128.744 23.384C128.424 24.104 128.088 24.72 127.736 25.232C127.4 25.76 127.024 26.192 126.608 26.528C126.192 26.864 125.72 27.112 125.192 27.272C124.68 27.432 124.096 27.512 123.44 27.512C123.264 27.512 123.08 27.496 122.888 27.464C122.696 27.448 122.504 27.416 122.312 27.368C122.136 27.336 121.968 27.296 121.808 27.248C121.664 27.2 121.56 27.16 121.496 27.128L121.904 25.328ZM144.082 13.16C143.81 12.936 143.418 12.72 142.906 12.512C142.394 12.304 141.834 12.2 141.226 12.2C140.586 12.2 140.034 12.32 139.57 12.56C139.122 12.784 138.754 13.104 138.466 13.52C138.178 13.92 137.97 14.4 137.842 14.96C137.714 15.52 137.65 16.12 137.65 16.76C137.65 18.216 138.01 19.344 138.73 20.144C139.45 20.928 140.41 21.32 141.61 21.32C142.218 21.32 142.722 21.296 143.122 21.248C143.538 21.184 143.858 21.12 144.082 21.056V13.16ZM144.082 4.76L146.314 4.376V22.64C145.802 22.784 145.146 22.928 144.346 23.072C143.546 23.216 142.626 23.288 141.586 23.288C140.626 23.288 139.762 23.136 138.994 22.832C138.226 22.528 137.57 22.096 137.026 21.536C136.482 20.976 136.058 20.296 135.754 19.496C135.466 18.68 135.322 17.768 135.322 16.76C135.322 15.8 135.442 14.92 135.682 14.12C135.938 13.32 136.306 12.632 136.786 12.056C137.266 11.48 137.85 11.032 138.538 10.712C139.242 10.392 140.042 10.232 140.938 10.232C141.658 10.232 142.29 10.328 142.834 10.52C143.394 10.712 143.81 10.896 144.082 11.072V4.76ZM149.407 25.328C149.583 25.408 149.807 25.48 150.079 25.544C150.367 25.624 150.647 25.664 150.919 25.664C151.799 25.664 152.487 25.464 152.983 25.064C153.479 24.68 153.927 24.048 154.327 23.168C153.319 21.248 152.375 19.216 151.495 17.072C150.631 14.912 149.911 12.728 149.335 10.52H151.735C151.911 11.24 152.119 12.016 152.359 12.848C152.615 13.68 152.895 14.536 153.199 15.416C153.503 16.296 153.831 17.176 154.183 18.056C154.535 18.936 154.903 19.784 155.287 20.6C155.895 18.92 156.423 17.256 156.871 15.608C157.319 13.96 157.743 12.264 158.143 10.52H160.447C159.871 12.872 159.231 15.136 158.527 17.312C157.823 19.472 157.063 21.496 156.247 23.384C155.927 24.104 155.591 24.72 155.239 25.232C154.903 25.76 154.527 26.192 154.111 26.528C153.695 26.864 153.223 27.112 152.695 27.272C152.183 27.432 151.599 27.512 150.943 27.512C150.767 27.512 150.583 27.496 150.391 27.464C150.199 27.448 150.007 27.416 149.815 27.368C149.639 27.336 149.471 27.296 149.311 27.248C149.167 27.2 149.063 27.16 148.999 27.128L149.407 25.328ZM168.945 23.288C167.937 23.288 167.049 23.128 166.281 22.808C165.529 22.488 164.889 22.04 164.361 21.464C163.849 20.888 163.465 20.208 163.209 19.424C162.953 18.624 162.825 17.744 162.825 16.784C162.825 15.824 162.961 14.944 163.233 14.144C163.521 13.344 163.921 12.656 164.433 12.08C164.945 11.488 165.569 11.032 166.305 10.712C167.057 10.376 167.889 10.208 168.801 10.208C169.361 10.208 169.921 10.256 170.481 10.352C171.041 10.448 171.577 10.6 172.089 10.808L171.585 12.704C171.249 12.544 170.857 12.416 170.409 12.32C169.977 12.224 169.513 12.176 169.017 12.176C167.769 12.176 166.809 12.568 166.137 13.352C165.481 14.136 165.153 15.28 165.153 16.784C165.153 17.456 165.225 18.072 165.369 18.632C165.529 19.192 165.769 19.672 166.089 20.072C166.425 20.472 166.849 20.784 167.361 21.008C167.873 21.216 168.497 21.32 169.233 21.32C169.825 21.32 170.361 21.264 170.841 21.152C171.321 21.04 171.697 20.92 171.969 20.792L172.281 22.664C172.153 22.744 171.969 22.824 171.729 22.904C171.489 22.968 171.217 23.024 170.913 23.072C170.609 23.136 170.281 23.184 169.929 23.216C169.593 23.264 169.265 23.288 168.945 23.288ZM175.397 23V4.76L177.629 4.376V10.76C178.045 10.6 178.485 10.48 178.949 10.4C179.429 10.304 179.901 10.256 180.365 10.256C181.357 10.256 182.181 10.4 182.837 10.688C183.493 10.96 184.013 11.352 184.397 11.864C184.797 12.36 185.077 12.96 185.237 13.664C185.397 14.368 185.477 15.144 185.477 15.992V23H183.245V16.472C183.245 15.704 183.189 15.048 183.077 14.504C182.981 13.96 182.813 13.52 182.573 13.184C182.333 12.848 182.013 12.608 181.613 12.464C181.213 12.304 180.717 12.224 180.125 12.224C179.885 12.224 179.637 12.24 179.381 12.272C179.125 12.304 178.877 12.344 178.637 12.392C178.413 12.424 178.205 12.464 178.013 12.512C177.837 12.56 177.709 12.6 177.629 12.632V23H175.397Z" fill="white"/>
<path d="M51.3266 23L51.1395 23.0707L51.1884 23.2H51.3266V23ZM50.5586 20.888L50.3693 20.9525L50.3698 20.9539L50.5586 20.888ZM49.8146 18.752L50.0031 18.685L49.9558 18.552H49.8146V18.752ZM42.2786 18.752V18.552H42.1375L42.0902 18.6849L42.2786 18.752ZM40.7666 23V23.2H40.9077L40.9551 23.0671L40.7666 23ZM38.3426 23L38.1547 22.9317L38.0571 23.2H38.3426V23ZM40.1426 18.128L40.3298 18.1984L40.3301 18.1978L40.1426 18.128ZM41.7746 13.856L41.5892 13.781L41.5885 13.7829L41.7746 13.856ZM43.3826 10.016L43.5661 10.0957L43.5665 10.0948L43.3826 10.016ZM45.0386 6.368V6.168H44.9128L44.8583 6.28145L45.0386 6.368ZM47.1746 6.368L47.3549 6.28145L47.3005 6.168H47.1746V6.368ZM48.8306 10.016L48.6468 10.0948L48.6472 10.0957L48.8306 10.016ZM50.4146 13.856L50.2285 13.9291L50.2292 13.931L50.4146 13.856ZM52.0706 18.128L51.8832 18.1978L51.8835 18.1984L52.0706 18.128ZM53.8706 23V23.2H54.1562L54.0586 22.9317L53.8706 23ZM49.1426 16.832V17.032H49.4293L49.3303 16.763L49.1426 16.832ZM47.6066 12.8L47.4195 12.8707L47.4206 12.8735L47.6066 12.8ZM46.0466 9.032L46.2288 8.94942L46.0493 8.55342L45.8654 8.94742L46.0466 9.032ZM44.4386 12.8L44.2523 12.7273L44.2518 12.7285L44.4386 12.8ZM42.9506 16.832L42.7622 16.7649L42.6671 17.032H42.9506V16.832ZM51.5137 22.9293C51.2423 22.2108 50.9869 21.5084 50.7475 20.8221L50.3698 20.9539C50.6104 21.6436 50.867 22.3492 51.1395 23.0707L51.5137 22.9293ZM50.7479 20.8235C50.5076 20.1186 50.2594 19.4058 50.0031 18.685L49.6262 18.819C49.8819 19.5382 50.1296 20.2494 50.3693 20.9525L50.7479 20.8235ZM49.8146 18.552H42.2786V18.952H49.8146V18.552ZM42.0902 18.6849L40.5782 22.9329L40.9551 23.0671L42.4671 18.8191L42.0902 18.6849ZM40.7666 22.8H38.3426V23.2H40.7666V22.8ZM38.5306 23.0683C39.1704 21.3089 39.7701 19.6856 40.3298 18.1984L39.9555 18.0576C39.3951 19.5464 38.7949 21.1711 38.1547 22.9317L38.5306 23.0683ZM40.3301 18.1978C40.8897 16.6948 41.4333 15.2719 41.9608 13.9291L41.5885 13.7829C41.06 15.1281 40.5156 16.5532 39.9552 18.0582L40.3301 18.1978ZM41.96 13.931C42.5035 12.5884 43.0388 11.31 43.5661 10.0957L43.1992 9.93634C42.6705 11.154 42.1338 12.4356 41.5892 13.781L41.96 13.931ZM43.5665 10.0948C44.0934 8.86538 44.6442 7.65197 45.2189 6.45455L44.8583 6.28145C44.2811 7.48403 43.7279 8.70262 43.1988 9.93722L43.5665 10.0948ZM45.0386 6.568H47.1746V6.168H45.0386V6.568ZM46.9943 6.45455C47.5691 7.65197 48.1199 8.86538 48.6468 10.0948L49.0145 9.93722C48.4854 8.70262 47.9322 7.48403 47.3549 6.28145L46.9943 6.45455ZM48.6472 10.0957C49.1742 11.3093 49.7013 12.5871 50.2285 13.9291L50.6008 13.7829C50.072 12.4369 49.5431 11.1547 49.0141 9.93634L48.6472 10.0957ZM50.2292 13.931C50.7725 15.2731 51.3238 16.6954 51.8832 18.1978L52.2581 18.0582C51.6975 16.5526 51.1448 15.1269 50.6 13.781L50.2292 13.931ZM51.8835 18.1984C52.4431 19.6856 53.0429 21.3089 53.6827 23.0683L54.0586 22.9317C53.4184 21.1711 52.8181 19.5464 52.2578 18.0576L51.8835 18.1984ZM53.8706 22.8H51.3266V23.2H53.8706V22.8ZM49.3303 16.763C48.8178 15.3696 48.3053 14.0241 47.7926 12.7265L47.4206 12.8735C47.932 14.1679 48.4434 15.5104 48.9549 16.901L49.3303 16.763ZM47.7937 12.7293C47.2963 11.4135 46.7747 10.1536 46.2288 8.94942L45.8645 9.11458C46.4066 10.3104 46.925 11.5625 47.4196 12.8707L47.7937 12.7293ZM45.8654 8.94742C45.3035 10.1516 44.7658 11.4115 44.2523 12.7273L44.625 12.8727C45.1355 11.5645 45.6698 10.3124 46.2279 9.11658L45.8654 8.94742ZM44.2518 12.7285C43.7553 14.026 43.2587 15.3715 42.7622 16.7649L43.139 16.8991C43.6345 15.5085 44.13 14.166 44.6254 12.8715L44.2518 12.7285ZM42.9506 17.032H49.1426V16.632H42.9506V17.032ZM61.9607 10.304L61.9342 10.5027L61.9482 10.5036L61.9607 10.304ZM62.7047 10.4L62.6654 10.5965L62.6783 10.5982L62.7047 10.4ZM63.3527 10.52L63.3042 10.714L63.3132 10.7163L63.3223 10.7177L63.3527 10.52ZM63.8087 10.616L64.0049 10.6548L64.039 10.482L63.8719 10.4263L63.8087 10.616ZM63.4247 12.56L63.3563 12.748L63.5757 12.8277L63.6209 12.5988L63.4247 12.56ZM62.5367 12.344L62.49 12.5387L62.4989 12.5404L62.5367 12.344ZM59.7287 12.344L59.7679 12.5402L59.7737 12.5389L59.7287 12.344ZM58.9367 12.512L58.8882 12.318L58.7367 12.3558V12.512H58.9367ZM58.9367 23V23.2H59.1367V23H58.9367ZM56.7047 23H56.5047V23.2H56.7047V23ZM56.7047 11.048L56.6363 10.86L56.5047 10.9079V11.048H56.7047ZM58.6727 10.52L58.7127 10.716L58.7165 10.7151L58.6727 10.52ZM61.3127 10.456C61.4939 10.456 61.7009 10.4711 61.9343 10.5022L61.9871 10.1058C61.7405 10.0729 61.5155 10.056 61.3127 10.056V10.456ZM61.9482 10.5036C62.1957 10.5191 62.4347 10.55 62.6655 10.5961L62.7439 10.2039C62.4947 10.154 62.2377 10.1209 61.9732 10.1044L61.9482 10.5036ZM62.6783 10.5982C62.9124 10.6295 63.1209 10.6682 63.3042 10.714L63.4012 10.326C63.2005 10.2758 62.977 10.2345 62.7311 10.2018L62.6783 10.5982ZM63.3223 10.7177C63.5284 10.7494 63.6664 10.7794 63.7455 10.8057L63.8719 10.4263C63.759 10.3886 63.593 10.3546 63.3831 10.3223L63.3223 10.7177ZM63.6125 10.5772L63.2285 12.5212L63.6209 12.5988L64.0049 10.6548L63.6125 10.5772ZM63.493 12.372C63.3009 12.3022 62.9912 12.2277 62.5745 12.1476L62.4989 12.5404C62.9142 12.6203 63.1965 12.6898 63.3563 12.748L63.493 12.372ZM62.5834 12.1495C62.1621 12.0484 61.6248 12 60.9767 12V12.4C61.6086 12.4 62.1113 12.4476 62.49 12.5385L62.5834 12.1495ZM60.9767 12C60.5452 12 60.1141 12.0498 59.6837 12.1491L59.7737 12.5389C60.1753 12.4462 60.5762 12.4 60.9767 12.4V12ZM59.6895 12.1479C59.2904 12.2277 59.0216 12.2846 58.8882 12.318L58.9852 12.706C59.1078 12.6754 59.367 12.6203 59.7679 12.5401L59.6895 12.1479ZM58.7367 12.512V23H59.1367V12.512H58.7367ZM58.9367 22.8H56.7047V23.2H58.9367V22.8ZM56.9047 23V11.048H56.5047V23H56.9047ZM56.773 11.236C57.2888 11.0484 57.9346 10.8747 58.7127 10.716L58.6327 10.324C57.8428 10.4853 57.1766 10.6636 56.6363 10.86L56.773 11.236ZM58.7165 10.7151C59.4834 10.543 60.3484 10.456 61.3127 10.456V10.056C60.325 10.056 59.4299 10.145 58.6289 10.3249L58.7165 10.7151ZM68.7705 10.52H68.5705V10.72H68.7705V10.52ZM73.4985 10.52H73.6985V10.32H73.4985V10.52ZM73.4985 12.392V12.592H73.6985V12.392H73.4985ZM68.7705 12.392V12.192H68.5705V12.392H68.7705ZM68.9145 19.712L68.7196 19.757L68.72 19.7587L68.9145 19.712ZM69.3465 20.672L69.1902 20.797L69.1947 20.8022L69.3465 20.672ZM70.0665 21.152L70.1298 20.9623L70.1298 20.9623L70.0665 21.152ZM72.6825 21.08L72.7503 21.2682L72.7543 21.2667L72.6825 21.08ZM73.5465 20.744L73.7413 20.6985L73.6883 20.4719L73.4722 20.5583L73.5465 20.744ZM73.9785 22.592L74.068 22.7709L74.2092 22.7003L74.1733 22.5465L73.9785 22.592ZM72.8025 23L72.7475 22.8076L72.7425 22.8092L72.8025 23ZM68.7705 22.952L68.6943 23.137L68.7009 23.1395L68.7705 22.952ZM67.4505 21.968L67.6084 21.8452L67.6084 21.8452L67.4505 21.968ZM66.7305 20.384L66.5343 20.4232L66.5356 20.429L66.7305 20.384ZM66.5385 7.04L66.5046 6.8429L66.3385 6.87147V7.04H66.5385ZM68.7705 6.656H68.9705V6.41865L68.7366 6.45889L68.7705 6.656ZM68.7705 10.72H73.4985V10.32H68.7705V10.72ZM73.2985 10.52V12.392H73.6985V10.52H73.2985ZM73.4985 12.192H68.7705V12.592H73.4985V12.192ZM68.5705 12.392V18.152H68.9705V12.392H68.5705ZM68.5705 18.152C68.5705 18.7849 68.6191 19.3212 68.7196 19.757L69.1094 19.667C69.018 19.2708 68.9705 18.7671 68.9705 18.152H68.5705ZM68.72 19.7587C68.8207 20.1781 68.9749 20.5276 69.1903 20.7969L69.5027 20.5471C69.3342 20.3364 69.2003 20.0459 69.109 19.6653L68.72 19.7587ZM69.1947 20.8022C69.411 21.0545 69.6819 21.2346 70.0033 21.3417L70.1298 20.9623C69.8751 20.8774 69.6661 20.7375 69.4984 20.5418L69.1947 20.8022ZM70.0033 21.3417C70.3162 21.4461 70.6744 21.496 71.0745 21.496V21.096C70.7066 21.096 70.3928 21.0499 70.1298 20.9623L70.0033 21.3417ZM71.0745 21.496C71.7578 21.496 72.3197 21.4232 72.7503 21.2682L72.6148 20.8918C72.2454 21.0248 71.7352 21.096 71.0745 21.096V21.496ZM72.7543 21.2667C73.1702 21.1067 73.4594 20.9943 73.6208 20.9297L73.4722 20.5583C73.3136 20.6217 73.0268 20.7333 72.6107 20.8933L72.7543 21.2667ZM73.3518 20.7895L73.7838 22.6375L74.1733 22.5465L73.7413 20.6985L73.3518 20.7895ZM73.8891 22.4131C73.6832 22.516 73.3071 22.6478 72.7476 22.8077L72.8575 23.1923C73.4179 23.0322 73.8258 22.892 74.068 22.7709L73.8891 22.4131ZM72.7425 22.8092C72.2058 22.9779 71.5866 23.064 70.8825 23.064V23.464C71.6184 23.464 72.2793 23.3741 72.8625 23.1908L72.7425 22.8092ZM70.8825 23.064C70.0491 23.064 69.3706 22.9616 68.8401 22.7645L68.7009 23.1395C69.2904 23.3584 70.0199 23.464 70.8825 23.464V23.064ZM68.8467 22.7671C68.3324 22.5553 67.9214 22.2477 67.6084 21.8452L67.2926 22.0908C67.6516 22.5523 68.1207 22.9007 68.6944 23.1369L68.8467 22.7671ZM67.6084 21.8452C67.293 21.4397 67.064 20.9395 66.9254 20.339L66.5356 20.429C66.6851 21.0765 66.936 21.6323 67.2926 22.0908L67.6084 21.8452ZM66.9266 20.3448C66.8018 19.7206 66.7385 18.9982 66.7385 18.176H66.3385C66.3385 19.0178 66.4032 19.7674 66.5344 20.4232L66.9266 20.3448ZM66.7385 18.176V7.04H66.3385V18.176H66.7385ZM66.5724 7.2371L68.8044 6.8531L68.7366 6.45889L66.5046 6.8429L66.5724 7.2371ZM68.5705 6.656V10.52H68.9705V6.656H68.5705ZM86.9948 22.64L87.0433 22.834L87.1948 22.7962V22.64H86.9948ZM84.9548 23.048L84.9213 22.8508L84.9207 22.8509L84.9548 23.048ZM79.6268 22.856L79.5463 23.0392L79.5502 23.0407L79.6268 22.856ZM78.0428 21.656L77.8852 21.7791L77.8852 21.7791L78.0428 21.656ZM77.1788 19.856L76.9847 19.9045L76.985 19.9056L77.1788 19.856ZM76.9148 10.52V10.32H76.7148V10.52H76.9148ZM79.1468 10.52H79.3468V10.32H79.1468V10.52ZM79.8668 20.312L79.7054 20.4301L79.7054 20.4301L79.8668 20.312ZM83.7548 21.224L83.769 21.424L83.783 21.422L83.7548 21.224ZM84.3548 21.152L84.3729 21.3512L84.3803 21.3505L84.3876 21.3493L84.3548 21.152ZM84.7628 21.056L84.837 21.2417L84.9628 21.1914V21.056H84.7628ZM84.7628 10.52V10.32H84.5628V10.52H84.7628ZM86.9948 10.52H87.1948V10.32H86.9948V10.52ZM86.9463 22.446C86.4413 22.5722 85.7669 22.7072 84.9213 22.8508L84.9882 23.2452C85.8386 23.1008 86.5242 22.9638 87.0433 22.834L86.9463 22.446ZM84.9207 22.8509C84.1027 22.9925 83.1466 23.064 82.0508 23.064V23.464C83.1629 23.464 84.1428 23.3915 84.9889 23.2451L84.9207 22.8509ZM82.0508 23.064C81.1083 23.064 80.3282 22.9303 79.7034 22.6713L79.5502 23.0407C80.2374 23.3257 81.0732 23.464 82.0508 23.464V23.064ZM79.7072 22.6729C79.0783 22.3968 78.578 22.0162 78.2004 21.5329L77.8852 21.7791C78.3076 22.3198 78.8632 22.7392 79.5464 23.0391L79.7072 22.6729ZM78.2004 21.5329C77.8189 21.0446 77.5423 20.4702 77.3725 19.8064L76.985 19.9056C77.1672 20.6178 77.4666 21.2434 77.8852 21.7791L78.2004 21.5329ZM77.3728 19.8075C77.2014 19.1218 77.1148 18.3623 77.1148 17.528H76.7148C76.7148 18.3897 76.8042 19.1822 76.9847 19.9045L77.3728 19.8075ZM77.1148 17.528V10.52H76.7148V17.528H77.1148ZM76.9148 10.72H79.1468V10.32H76.9148V10.72ZM78.9468 10.52V17.048H79.3468V10.52H78.9468ZM78.9468 17.048C78.9468 18.5786 79.1864 19.7209 79.7054 20.4301L80.0282 20.1939C79.5871 19.5911 79.3468 18.5574 79.3468 17.048H78.9468ZM79.7054 20.4301C80.2366 21.1561 81.1181 21.496 82.2908 21.496V21.096C81.1914 21.096 80.4569 20.7799 80.0282 20.1939L79.7054 20.4301ZM82.2908 21.496C82.5352 21.496 82.7874 21.4879 83.0472 21.4716L83.0223 21.0724C82.7702 21.0881 82.5263 21.096 82.2908 21.096V21.496ZM83.0472 21.4716C83.3037 21.4556 83.5443 21.4395 83.769 21.4235L83.7405 21.0245C83.5172 21.0405 83.2778 21.0564 83.0223 21.0724L83.0472 21.4716ZM83.783 21.422C84.0045 21.3903 84.2011 21.3668 84.3729 21.3512L84.3367 20.9528C84.1565 20.9692 83.953 20.9937 83.7265 21.026L83.783 21.422ZM84.3876 21.3493C84.5806 21.3171 84.7353 21.2824 84.837 21.2417L84.6885 20.8703C84.6302 20.8936 84.5129 20.9229 84.3219 20.9547L84.3876 21.3493ZM84.9628 21.056V10.52H84.5628V21.056H84.9628ZM84.7628 10.72H86.9948V10.32H84.7628V10.72ZM86.7948 10.52V22.64H87.1948V10.52H86.7948ZM96.816 10.304L96.7895 10.5027L96.8035 10.5036L96.816 10.304ZM97.56 10.4L97.5207 10.5965L97.5336 10.5982L97.56 10.4ZM98.208 10.52L98.1595 10.714L98.1685 10.7163L98.1776 10.7177L98.208 10.52ZM98.664 10.616L98.8602 10.6548L98.8944 10.482L98.7273 10.4263L98.664 10.616ZM98.28 12.56L98.2117 12.748L98.431 12.8277L98.4762 12.5988L98.28 12.56ZM97.392 12.344L97.3453 12.5387L97.3542 12.5404L97.392 12.344ZM94.584 12.344L94.6233 12.5402L94.629 12.5389L94.584 12.344ZM93.792 12.512L93.7435 12.318L93.592 12.3558V12.512H93.792ZM93.792 23V23.2H93.992V23H93.792ZM91.56 23H91.36V23.2H91.56V23ZM91.56 11.048L91.4917 10.86L91.36 10.9079V11.048H91.56ZM93.528 10.52L93.568 10.716L93.5718 10.7151L93.528 10.52ZM96.168 10.456C96.3492 10.456 96.5562 10.4711 96.7896 10.5022L96.8424 10.1058C96.5958 10.0729 96.3708 10.056 96.168 10.056V10.456ZM96.8035 10.5036C97.051 10.5191 97.29 10.55 97.5208 10.5961L97.5992 10.2039C97.35 10.154 97.093 10.1209 96.8285 10.1044L96.8035 10.5036ZM97.5336 10.5982C97.7677 10.6295 97.9762 10.6682 98.1595 10.714L98.2565 10.326C98.0559 10.2758 97.8323 10.2345 97.5864 10.2018L97.5336 10.5982ZM98.1776 10.7177C98.3837 10.7494 98.5217 10.7794 98.6008 10.8057L98.7273 10.4263C98.6143 10.3886 98.4483 10.3546 98.2384 10.3223L98.1776 10.7177ZM98.4678 10.5772L98.0838 12.5212L98.4762 12.5988L98.8602 10.6548L98.4678 10.5772ZM98.3484 12.372C98.1562 12.3022 97.8465 12.2277 97.4298 12.1476L97.3542 12.5404C97.7695 12.6203 98.0519 12.6898 98.2117 12.748L98.3484 12.372ZM97.4387 12.1495C97.0174 12.0484 96.4801 12 95.832 12V12.4C96.4639 12.4 96.9666 12.4476 97.3453 12.5385L97.4387 12.1495ZM95.832 12C95.4005 12 94.9694 12.0498 94.539 12.1491L94.629 12.5389C95.0306 12.4462 95.4315 12.4 95.832 12.4V12ZM94.5448 12.1479C94.1457 12.2277 93.8769 12.2846 93.7435 12.318L93.8405 12.706C93.9631 12.6754 94.2224 12.6203 94.6232 12.5401L94.5448 12.1479ZM93.592 12.512V23H93.992V12.512H93.592ZM93.792 22.8H91.56V23.2H93.792V22.8ZM91.76 23V11.048H91.36V23H91.76ZM91.6284 11.236C92.1442 11.0484 92.79 10.8747 93.568 10.716L93.488 10.324C92.6981 10.4853 92.0319 10.6636 91.4917 10.86L91.6284 11.236ZM93.5718 10.7151C94.3388 10.543 95.2037 10.456 96.168 10.456V10.056C95.1803 10.056 94.2853 10.145 93.4842 10.3249L93.5718 10.7151ZM117.749 7.544L117.632 7.70648L117.634 7.70814L117.749 7.544ZM119.117 13.976L118.938 13.8849L118.938 13.8866L119.117 13.976ZM117.629 15.632L117.738 15.7997L117.739 15.799L117.629 15.632ZM115.277 16.544L115.236 16.3481L115.236 16.3481L115.277 16.544ZM110.285 16.832V16.632H110.085V16.832H110.285ZM110.285 23V23.2H110.485V23H110.285ZM107.957 23H107.757V23.2H107.957V23ZM107.957 6.608L107.909 6.4137L107.757 6.45092V6.608H107.957ZM110.141 6.296L110.152 6.49567L110.156 6.49539L110.141 6.296ZM110.285 8.312L110.266 8.11282L110.085 8.12936V8.312H110.285ZM110.285 14.84H110.085V15.04H110.285V14.84ZM114.197 14.696L114.226 14.8938L114.231 14.893L114.197 14.696ZM115.805 14.168L115.902 14.3428L115.904 14.3416L115.805 14.168ZM116.837 13.136L117.011 13.2331L117.011 13.2331L116.837 13.136ZM116.813 9.896L116.639 9.99598L116.642 10.0008L116.813 9.896ZM115.805 8.912L115.7 9.0825L115.707 9.08683L115.805 8.912ZM114.341 8.384L114.374 8.18687L114.374 8.18687L114.341 8.384ZM112.373 6.4C114.687 6.4 116.431 6.84459 117.632 7.70646L117.865 7.38153C116.57 6.45141 114.73 6 112.373 6V6.4ZM117.634 7.70814C118.836 8.54497 119.445 9.79863 119.445 11.504H119.845C119.845 9.68936 119.189 8.30303 117.863 7.37986L117.634 7.70814ZM119.445 11.504C119.445 12.4398 119.273 13.2311 118.938 13.8849L119.295 14.0671C119.664 13.3449 119.845 12.4882 119.845 11.504H119.445ZM118.938 13.8866C118.618 14.5256 118.147 15.0514 117.519 15.465L117.739 15.799C118.423 15.3486 118.943 14.7704 119.295 14.0654L118.938 13.8866ZM117.52 15.4643C116.905 15.8639 116.145 16.16 115.236 16.3481L115.317 16.7399C116.264 16.544 117.072 16.2321 117.738 15.7997L117.52 15.4643ZM115.236 16.3481C114.324 16.5368 113.29 16.632 112.133 16.632V17.032C113.311 17.032 114.373 16.9352 115.317 16.7399L115.236 16.3481ZM112.133 16.632H110.285V17.032H112.133V16.632ZM110.085 16.832V23H110.485V16.832H110.085ZM110.285 22.8H107.957V23.2H110.285V22.8ZM108.157 23V6.608H107.757V23H108.157ZM108.004 6.8023C108.646 6.6456 109.362 6.54305 110.152 6.49564L110.129 6.09636C109.319 6.14495 108.579 6.25039 107.909 6.4137L108.004 6.8023ZM110.156 6.49539C110.968 6.43171 111.707 6.4 112.373 6.4V6C111.694 6 110.945 6.03229 110.125 6.09661L110.156 6.49539ZM112.565 8.04C111.571 8.04 110.804 8.06399 110.266 8.11282L110.303 8.51118C110.821 8.46401 111.574 8.44 112.565 8.44V8.04ZM110.085 8.312V14.84H110.485V8.312H110.085ZM110.285 15.04H112.037V14.64H110.285V15.04ZM112.037 15.04C112.844 15.04 113.574 14.9916 114.226 14.8938L114.167 14.4982C113.539 14.5924 112.829 14.64 112.037 14.64V15.04ZM114.231 14.893C114.886 14.7783 115.445 14.5965 115.902 14.3428L115.707 13.9932C115.3 14.2195 114.787 14.3897 114.162 14.499L114.231 14.893ZM115.904 14.3416C116.382 14.0684 116.753 13.6985 117.011 13.2331L116.662 13.0389C116.44 13.4375 116.123 13.7556 115.705 13.9944L115.904 14.3416ZM117.011 13.2331C117.273 12.7626 117.397 12.1743 117.397 11.48H116.997C116.997 12.1297 116.88 12.6454 116.662 13.0389L117.011 13.2331ZM117.397 11.48C117.397 10.8142 117.263 10.2471 116.983 9.79118L116.642 10.0008C116.874 10.3769 116.997 10.8658 116.997 11.48H117.397ZM116.986 9.79606C116.727 9.34772 116.364 8.99424 115.902 8.73717L115.707 9.08683C116.109 9.30976 116.418 9.61228 116.639 9.99594L116.986 9.79606ZM115.909 8.74167C115.468 8.47029 114.955 8.28649 114.374 8.18687L114.307 8.58112C114.846 8.6735 115.309 8.84171 115.7 9.08233L115.909 8.74167ZM114.374 8.18687C113.802 8.08879 113.199 8.04 112.565 8.04V8.44C113.178 8.44 113.759 8.48721 114.307 8.58112L114.374 8.18687ZM121.904 25.328L121.987 25.1459L121.764 25.0443L121.709 25.2838L121.904 25.328ZM122.576 25.544L122.63 25.3511L122.622 25.3493L122.576 25.544ZM125.48 25.064L125.358 24.9058L125.355 24.9083L125.48 25.064ZM126.824 23.168L127.007 23.2508L127.047 23.1617L127.002 23.075L126.824 23.168ZM123.992 17.072L123.807 17.1463L123.807 17.1479L123.992 17.072ZM121.832 10.52V10.32H121.574L121.639 10.5705L121.832 10.52ZM124.232 10.52L124.427 10.4725L124.389 10.32H124.232V10.52ZM124.856 12.848L124.664 12.9034L124.665 12.9068L124.856 12.848ZM125.696 15.416L125.507 15.4813L125.507 15.4813L125.696 15.416ZM126.68 18.056L126.866 17.9817L126.866 17.9817L126.68 18.056ZM127.784 20.6L127.603 20.6852L127.809 21.121L127.973 20.6681L127.784 20.6ZM129.368 15.608L129.175 15.5555L129.175 15.5555L129.368 15.608ZM130.64 10.52V10.32H130.481L130.446 10.4753L130.64 10.52ZM132.944 10.52L133.139 10.5676L133.199 10.32H132.944V10.52ZM131.024 17.312L131.215 17.374L131.215 17.3736L131.024 17.312ZM128.744 23.384L128.927 23.4652L128.928 23.4633L128.744 23.384ZM127.736 25.232L127.572 25.1186L127.568 25.1246L127.736 25.232ZM126.608 26.528L126.483 26.3724L126.483 26.3724L126.608 26.528ZM125.192 27.272L125.134 27.0806L125.133 27.0811L125.192 27.272ZM122.888 27.464L122.921 27.2667L122.913 27.2654L122.905 27.2647L122.888 27.464ZM122.312 27.368L122.361 27.1736L122.348 27.1712L122.312 27.368ZM121.808 27.248L121.745 27.4378L121.751 27.4396L121.808 27.248ZM121.496 27.128L121.301 27.0838L121.267 27.2367L121.407 27.3069L121.496 27.128ZM121.822 25.5101C122.014 25.5973 122.251 25.6729 122.531 25.7387L122.622 25.3493C122.358 25.2871 122.147 25.2187 121.987 25.1459L121.822 25.5101ZM122.523 25.7367C122.827 25.8211 123.125 25.864 123.416 25.864V25.464C123.164 25.464 122.902 25.4269 122.63 25.3513L122.523 25.7367ZM123.416 25.864C124.325 25.864 125.063 25.6576 125.606 25.2197L125.355 24.9083C124.906 25.2704 124.268 25.464 123.416 25.464V25.864ZM125.603 25.2221C126.135 24.8103 126.6 24.1458 127.007 23.2508L126.642 23.0852C126.249 23.9502 125.818 24.5497 125.358 24.9059L125.603 25.2221ZM127.002 23.075C125.997 21.1609 125.055 19.1347 124.177 16.9961L123.807 17.1479C124.69 19.2973 125.636 21.3351 126.647 23.261L127.002 23.075ZM124.178 16.9977C123.317 14.8453 122.6 12.6693 122.026 10.4695L121.639 10.5705C122.217 12.7867 122.94 14.9787 123.807 17.1463L124.178 16.9977ZM121.832 10.72H124.232V10.32H121.832V10.72ZM124.038 10.5675C124.215 11.2905 124.424 12.0692 124.664 12.9034L125.049 12.7926C124.809 11.9628 124.602 11.1895 124.427 10.4725L124.038 10.5675ZM124.665 12.9068C124.922 13.7411 125.203 14.5993 125.507 15.4813L125.885 15.3507C125.582 14.4727 125.303 13.6189 125.048 12.7892L124.665 12.9068ZM125.507 15.4813C125.812 16.3644 126.142 17.2474 126.495 18.1303L126.866 17.9817C126.515 17.1046 126.188 16.2276 125.885 15.3507L125.507 15.4813ZM126.495 18.1303C126.848 19.0138 127.218 19.8654 127.603 20.6852L127.965 20.5148C127.583 19.7026 127.217 18.8582 126.866 17.9817L126.495 18.1303ZM127.973 20.6681C128.582 18.9832 129.112 17.314 129.561 15.6605L129.175 15.5555C128.729 17.198 128.203 18.8568 127.596 20.5319L127.973 20.6681ZM129.561 15.6605C130.01 14.0098 130.435 12.3112 130.835 10.5647L130.446 10.4753C130.046 12.2168 129.623 13.9102 129.175 15.5555L129.561 15.6605ZM130.64 10.72H132.944V10.32H130.64V10.72ZM132.75 10.4724C132.175 12.82 131.537 15.0793 130.834 17.2504L131.215 17.3736C131.92 15.1927 132.562 12.924 133.139 10.5676L132.75 10.4724ZM130.834 17.25C130.132 19.4047 129.374 21.4229 128.561 23.3047L128.928 23.4633C129.747 21.5691 130.509 19.5393 131.215 17.374L130.834 17.25ZM128.562 23.3028C128.245 24.0144 127.915 24.6191 127.572 25.1187L127.901 25.3453C128.262 24.8209 128.603 24.1936 128.927 23.4652L128.562 23.3028ZM127.568 25.1246C127.241 25.6374 126.879 26.0521 126.483 26.3724L126.734 26.6836C127.17 26.3319 127.559 25.8826 127.905 25.3394L127.568 25.1246ZM126.483 26.3724C126.087 26.6917 125.639 26.9278 125.134 27.0806L125.25 27.4634C125.802 27.2962 126.297 27.0363 126.734 26.6836L126.483 26.3724ZM125.133 27.0811C124.644 27.2339 124.081 27.312 123.44 27.312V27.712C124.112 27.712 124.717 27.6301 125.252 27.4629L125.133 27.0811ZM123.44 27.312C123.277 27.312 123.104 27.2971 122.921 27.2667L122.856 27.6613C123.057 27.6949 123.252 27.712 123.44 27.712V27.312ZM122.905 27.2647C122.724 27.2496 122.543 27.2194 122.361 27.174L122.264 27.562C122.466 27.6126 122.669 27.6464 122.872 27.6633L122.905 27.2647ZM122.348 27.1712C122.179 27.1405 122.018 27.1022 121.866 27.0564L121.751 27.4396C121.919 27.4898 122.094 27.5315 122.277 27.5648L122.348 27.1712ZM121.872 27.0583C121.729 27.0107 121.636 26.9744 121.586 26.9491L121.407 27.3069C121.484 27.3456 121.6 27.3893 121.745 27.4377L121.872 27.0583ZM121.692 27.1722L122.1 25.3722L121.709 25.2838L121.301 27.0838L121.692 27.1722ZM144.082 13.16H144.282V13.0656L144.209 13.0056L144.082 13.16ZM142.906 12.512L142.831 12.6973L142.831 12.6973L142.906 12.512ZM139.57 12.56L139.66 12.7389L139.662 12.7376L139.57 12.56ZM138.466 13.52L138.628 13.6369L138.631 13.6338L138.466 13.52ZM138.73 20.144L138.581 20.2778L138.583 20.2793L138.73 20.144ZM143.122 21.248L143.146 21.4467L143.153 21.4457L143.122 21.248ZM144.082 21.056L144.137 21.2483L144.282 21.2069V21.056H144.082ZM144.082 4.76L144.048 4.56289L143.882 4.59147V4.76H144.082ZM146.314 4.376H146.514V4.13865L146.28 4.1789L146.314 4.376ZM146.314 22.64L146.368 22.8325L146.514 22.7915V22.64H146.314ZM138.994 22.832L139.068 22.646L139.068 22.646L138.994 22.832ZM137.026 21.536L137.17 21.3966L137.17 21.3966L137.026 21.536ZM135.754 19.496L135.565 19.5626L135.567 19.567L135.754 19.496ZM135.682 14.12L135.492 14.059L135.491 14.0625L135.682 14.12ZM136.786 12.056L136.632 11.928L136.632 11.928L136.786 12.056ZM138.538 10.712L138.455 10.5299L138.454 10.5307L138.538 10.712ZM142.834 10.52L142.768 10.7086L142.769 10.7092L142.834 10.52ZM144.082 11.072L143.973 11.2399L144.282 11.4396V11.072H144.082ZM144.209 13.0056C143.915 12.7636 143.503 12.5385 142.981 12.3267L142.831 12.6973C143.333 12.9015 143.705 13.1084 143.955 13.3144L144.209 13.0056ZM142.981 12.3267C142.443 12.1081 141.857 12 141.226 12V12.4C141.811 12.4 142.345 12.4999 142.831 12.6973L142.981 12.3267ZM141.226 12C140.561 12 139.976 12.1247 139.478 12.3824L139.662 12.7376C140.092 12.5153 140.611 12.4 141.226 12.4V12ZM139.481 12.3811C139.002 12.6203 138.609 12.9628 138.302 13.4062L138.631 13.6338C138.9 13.2452 139.242 12.9477 139.66 12.7389L139.481 12.3811ZM138.304 13.4031C137.998 13.8281 137.78 14.3337 137.647 14.9154L138.037 15.0046C138.16 14.4663 138.358 14.0119 138.628 13.6369L138.304 13.4031ZM137.647 14.9154C137.515 15.4916 137.45 16.1067 137.45 16.76H137.85C137.85 16.1333 137.913 15.5484 138.037 15.0046L137.647 14.9154ZM137.45 16.76C137.45 18.2478 137.818 19.4298 138.581 20.2778L138.879 20.0102C138.202 19.2582 137.85 18.1842 137.85 16.76H137.45ZM138.583 20.2793C139.346 21.11 140.362 21.52 141.61 21.52V21.12C140.458 21.12 139.555 20.746 138.877 20.0087L138.583 20.2793ZM141.61 21.52C142.223 21.52 142.735 21.4959 143.146 21.4466L143.098 21.0494C142.709 21.0961 142.214 21.12 141.61 21.12V21.52ZM143.153 21.4457C143.571 21.3812 143.901 21.3157 144.137 21.2483L144.027 20.8637C143.815 20.9243 143.505 20.9868 143.092 21.0503L143.153 21.4457ZM144.282 21.056V13.16H143.882V21.056H144.282ZM144.116 4.9571L146.348 4.5731L146.28 4.1789L144.048 4.56289L144.116 4.9571ZM146.114 4.376V22.64H146.514V4.376H146.114ZM146.26 22.4475C145.756 22.5891 145.107 22.7318 144.311 22.8752L144.382 23.2688C145.185 23.1242 145.848 22.9789 146.368 22.8325L146.26 22.4475ZM144.311 22.8752C143.525 23.0166 142.617 23.088 141.586 23.088V23.488C142.635 23.488 143.567 23.4154 144.382 23.2688L144.311 22.8752ZM141.586 23.088C140.647 23.088 139.809 22.9394 139.068 22.646L138.921 23.018C139.715 23.3326 140.605 23.488 141.586 23.488V23.088ZM139.068 22.646C138.325 22.3518 137.693 21.9352 137.17 21.3966L136.883 21.6754C137.448 22.2568 138.128 22.7042 138.921 23.018L139.068 22.646ZM137.17 21.3966C136.646 20.858 136.236 20.2019 135.941 19.425L135.567 19.567C135.88 20.3901 136.318 21.094 136.883 21.6754L137.17 21.3966ZM135.943 19.4294C135.663 18.638 135.522 17.749 135.522 16.76H135.122C135.122 17.787 135.269 18.722 135.566 19.5626L135.943 19.4294ZM135.522 16.76C135.522 15.8166 135.64 14.9563 135.874 14.1775L135.491 14.0625C135.244 14.8837 135.122 15.7834 135.122 16.76H135.522ZM135.873 14.181C136.122 13.4025 136.478 12.738 136.94 12.184L136.632 11.928C136.134 12.526 135.755 13.2375 135.492 14.059L135.873 14.181ZM136.94 12.184C137.401 11.631 137.961 11.2011 138.622 10.8933L138.454 10.5307C137.739 10.8629 137.132 11.329 136.632 11.928L136.94 12.184ZM138.621 10.8941C139.295 10.5876 140.066 10.432 140.938 10.432V10.032C140.018 10.032 139.189 10.1964 138.455 10.5299L138.621 10.8941ZM140.938 10.432C141.641 10.432 142.25 10.5258 142.768 10.7086L142.901 10.3314C142.331 10.1302 141.675 10.032 140.938 10.032V10.432ZM142.769 10.7092C143.324 10.8995 143.722 11.0772 143.973 11.2399L144.191 10.9041C143.898 10.7148 143.464 10.5245 142.899 10.3308L142.769 10.7092ZM144.282 11.072V4.76H143.882V11.072H144.282ZM149.407 25.328L149.49 25.1459L149.266 25.0443L149.212 25.2838L149.407 25.328ZM150.079 25.544L150.133 25.3511L150.125 25.3493L150.079 25.544ZM152.983 25.064L152.86 24.9058L152.857 24.9083L152.983 25.064ZM154.327 23.168L154.509 23.2508L154.55 23.1617L154.504 23.075L154.327 23.168ZM151.495 17.072L151.309 17.1463L151.31 17.1479L151.495 17.072ZM149.335 10.52V10.32H149.076L149.141 10.5705L149.335 10.52ZM151.735 10.52L151.929 10.4725L151.892 10.32H151.735V10.52ZM152.359 12.848L152.167 12.9034L152.168 12.9068L152.359 12.848ZM153.199 15.416L153.01 15.4813L153.01 15.4813L153.199 15.416ZM154.183 18.056L154.369 17.9817L154.369 17.9817L154.183 18.056ZM155.287 20.6L155.106 20.6852L155.311 21.121L155.475 20.6681L155.287 20.6ZM156.871 15.608L156.678 15.5555L156.678 15.5555L156.871 15.608ZM158.143 10.52V10.32H157.984L157.948 10.4753L158.143 10.52ZM160.447 10.52L160.641 10.5676L160.702 10.32H160.447V10.52ZM158.527 17.312L158.717 17.374L158.717 17.3736L158.527 17.312ZM156.247 23.384L156.43 23.4652L156.431 23.4633L156.247 23.384ZM155.239 25.232L155.074 25.1186L155.07 25.1246L155.239 25.232ZM154.111 26.528L153.985 26.3724L153.985 26.3724L154.111 26.528ZM152.695 27.272L152.637 27.0806L152.635 27.0811L152.695 27.272ZM150.391 27.464L150.424 27.2667L150.416 27.2654L150.408 27.2647L150.391 27.464ZM149.815 27.368L149.864 27.1736L149.851 27.1712L149.815 27.368ZM149.311 27.248L149.248 27.4378L149.253 27.4396L149.311 27.248ZM148.999 27.128L148.804 27.0838L148.769 27.2367L148.91 27.3069L148.999 27.128ZM149.324 25.5101C149.516 25.5973 149.754 25.6729 150.033 25.7387L150.125 25.3493C149.86 25.2871 149.65 25.2187 149.49 25.1459L149.324 25.5101ZM150.025 25.7367C150.329 25.8211 150.627 25.864 150.919 25.864V25.464C150.667 25.464 150.405 25.4269 150.132 25.3513L150.025 25.7367ZM150.919 25.864C151.827 25.864 152.566 25.6576 153.109 25.2197L152.857 24.9083C152.408 25.2704 151.77 25.464 150.919 25.464V25.864ZM153.105 25.2221C153.637 24.8103 154.102 24.1458 154.509 23.2508L154.145 23.0852C153.752 23.9502 153.321 24.5497 152.861 24.9059L153.105 25.2221ZM154.504 23.075C153.499 21.1609 152.558 19.1347 151.68 16.9961L151.31 17.1479C152.192 19.2973 153.139 21.3351 154.15 23.261L154.504 23.075ZM151.681 16.9977C150.82 14.8453 150.102 12.6693 149.528 10.4695L149.141 10.5705C149.72 12.7867 150.442 14.9787 151.309 17.1463L151.681 16.9977ZM149.335 10.72H151.735V10.32H149.335V10.72ZM151.541 10.5675C151.717 11.2905 151.926 12.0692 152.167 12.9034L152.551 12.7926C152.312 11.9628 152.104 11.1895 151.929 10.4725L151.541 10.5675ZM152.168 12.9068C152.425 13.7411 152.705 14.5993 153.01 15.4813L153.388 15.3507C153.085 14.4727 152.805 13.6189 152.55 12.7892L152.168 12.9068ZM153.01 15.4813C153.315 16.3644 153.644 17.2474 153.997 18.1303L154.369 17.9817C154.018 17.1046 153.691 16.2276 153.388 15.3507L153.01 15.4813ZM153.997 18.1303C154.351 19.0138 154.72 19.8654 155.106 20.6852L155.468 20.5148C155.086 19.7026 154.719 18.8582 154.369 17.9817L153.997 18.1303ZM155.475 20.6681C156.085 18.9832 156.614 17.314 157.064 15.6605L156.678 15.5555C156.231 17.198 155.705 18.8568 155.099 20.5319L155.475 20.6681ZM157.064 15.6605C157.513 14.0098 157.937 12.3112 158.338 10.5647L157.948 10.4753C157.549 12.2168 157.125 13.9102 156.678 15.5555L157.064 15.6605ZM158.143 10.72H160.447V10.32H158.143V10.72ZM160.253 10.4724C159.678 12.82 159.039 15.0793 158.337 17.2504L158.717 17.3736C159.423 15.1927 160.064 12.924 160.641 10.5676L160.253 10.4724ZM158.337 17.25C157.635 19.4047 156.877 21.4229 156.063 23.3047L156.431 23.4633C157.249 21.5691 158.011 19.5393 158.717 17.374L158.337 17.25ZM156.064 23.3028C155.748 24.0144 155.418 24.6191 155.074 25.1187L155.404 25.3453C155.764 24.8209 156.106 24.1936 156.43 23.4652L156.064 23.3028ZM155.07 25.1246C154.744 25.6374 154.382 26.0521 153.985 26.3724L154.237 26.6836C154.672 26.3319 155.062 25.8826 155.408 25.3394L155.07 25.1246ZM153.985 26.3724C153.59 26.6917 153.141 26.9278 152.637 27.0806L152.753 27.4634C153.305 27.2962 153.8 27.0363 154.237 26.6836L153.985 26.3724ZM152.635 27.0811C152.146 27.2339 151.583 27.312 150.943 27.312V27.712C151.615 27.712 152.22 27.6301 152.755 27.4629L152.635 27.0811ZM150.943 27.312C150.779 27.312 150.606 27.2971 150.424 27.2667L150.358 27.6613C150.56 27.6949 150.755 27.712 150.943 27.712V27.312ZM150.408 27.2647C150.227 27.2496 150.045 27.2194 149.863 27.174L149.766 27.562C149.969 27.6126 150.171 27.6464 150.374 27.6633L150.408 27.2647ZM149.851 27.1712C149.682 27.1405 149.521 27.1022 149.368 27.0564L149.253 27.4396C149.421 27.4898 149.596 27.5315 149.779 27.5648L149.851 27.1712ZM149.374 27.0583C149.232 27.0107 149.139 26.9744 149.088 26.9491L148.91 27.3069C148.987 27.3456 149.102 27.3893 149.248 27.4377L149.374 27.0583ZM149.194 27.1722L149.602 25.3722L149.212 25.2838L148.804 27.0838L149.194 27.1722ZM166.281 22.808L166.202 22.992L166.204 22.9926L166.281 22.808ZM164.361 21.464L164.211 21.5969L164.213 21.5991L164.361 21.464ZM163.209 19.424L163.018 19.485L163.019 19.4861L163.209 19.424ZM163.233 14.144L163.044 14.0762L163.043 14.0796L163.233 14.144ZM164.433 12.08L164.582 12.2129L164.584 12.2108L164.433 12.08ZM166.305 10.712L166.384 10.8954L166.386 10.8946L166.305 10.712ZM170.481 10.352L170.447 10.5491L170.447 10.5491L170.481 10.352ZM172.089 10.808L172.282 10.8594L172.327 10.689L172.164 10.6227L172.089 10.808ZM171.585 12.704L171.499 12.8846L171.716 12.9881L171.778 12.7554L171.585 12.704ZM170.409 12.32L170.365 12.5152L170.367 12.5156L170.409 12.32ZM166.137 13.352L165.985 13.2218L165.983 13.2237L166.137 13.352ZM165.369 18.632L165.175 18.6818L165.176 18.6869L165.369 18.632ZM166.089 20.072L165.932 20.197L165.935 20.2006L166.089 20.072ZM167.361 21.008L167.28 21.1913L167.285 21.1933L167.361 21.008ZM170.841 21.152L170.795 20.9572L170.795 20.9572L170.841 21.152ZM171.969 20.792L172.166 20.7591L172.122 20.4986L171.883 20.611L171.969 20.792ZM172.281 22.664L172.387 22.8336L172.5 22.7628L172.478 22.6311L172.281 22.664ZM171.729 22.904L171.78 23.0976L171.792 23.0937L171.729 22.904ZM170.913 23.072L170.881 22.8742L170.871 22.8763L170.913 23.072ZM169.929 23.216L169.911 23.0166L169.9 23.018L169.929 23.216ZM168.945 23.088C167.958 23.088 167.097 22.9313 166.358 22.6234L166.204 22.9926C167.001 23.3247 167.916 23.488 168.945 23.488V23.088ZM166.359 22.624C165.632 22.3146 165.016 21.8828 164.508 21.3289L164.213 21.5991C164.761 22.1972 165.425 22.6614 166.202 22.992L166.359 22.624ZM164.51 21.3311C164.018 20.7771 163.647 20.1216 163.399 19.3619L163.019 19.4861C163.282 20.2944 163.68 20.9989 164.211 21.5969L164.51 21.3311ZM163.399 19.363C163.15 18.5853 163.025 17.7262 163.025 16.784H162.625C162.625 17.7618 162.755 18.6627 163.018 19.485L163.399 19.363ZM163.025 16.784C163.025 15.843 163.158 14.985 163.422 14.2084L163.043 14.0796C162.763 14.903 162.625 15.805 162.625 16.784H163.025ZM163.421 14.2117C163.701 13.4332 164.089 12.768 164.582 12.2129L164.283 11.9471C163.753 12.544 163.34 13.2548 163.044 14.0763L163.421 14.2117ZM164.584 12.2108C165.076 11.6421 165.675 11.2038 166.384 10.8954L166.225 10.5286C165.462 10.8602 164.813 11.3339 164.281 11.9492L164.584 12.2108ZM166.386 10.8946C167.11 10.5712 167.914 10.408 168.801 10.408V10.008C167.864 10.008 167.003 10.1808 166.223 10.5294L166.386 10.8946ZM168.801 10.408C169.349 10.408 169.898 10.455 170.447 10.5491L170.514 10.1549C169.943 10.057 169.372 10.008 168.801 10.008V10.408ZM170.447 10.5491C170.993 10.6428 171.515 10.7909 172.013 10.9933L172.164 10.6227C171.638 10.4091 171.088 10.2532 170.514 10.1549L170.447 10.5491ZM171.895 10.7566L171.391 12.6526L171.778 12.7554L172.282 10.8594L171.895 10.7566ZM171.671 12.5234C171.318 12.3554 170.91 12.223 170.451 12.1244L170.367 12.5156C170.803 12.609 171.179 12.7326 171.499 12.8846L171.671 12.5234ZM170.452 12.1248C170.004 12.0252 169.525 11.976 169.017 11.976V12.376C169.5 12.376 169.949 12.4228 170.365 12.5152L170.452 12.1248ZM169.017 11.976C167.724 11.976 166.703 12.3843 165.985 13.2218L166.288 13.4822C166.915 12.7517 167.814 12.376 169.017 12.376V11.976ZM165.983 13.2237C165.286 14.0572 164.953 15.2545 164.953 16.784H165.353C165.353 15.3055 165.676 14.2148 166.29 13.4803L165.983 13.2237ZM164.953 16.784C164.953 17.4702 165.026 18.1032 165.175 18.6818L165.562 18.5822C165.423 18.0408 165.353 17.4418 165.353 16.784H164.953ZM165.176 18.6869C165.343 19.269 165.594 19.7736 165.932 20.1969L166.245 19.9471C165.943 19.5704 165.715 19.115 165.561 18.5771L165.176 18.6869ZM165.935 20.2006C166.293 20.6258 166.742 20.9558 167.28 21.1912L167.441 20.8248C166.955 20.6122 166.557 20.3182 166.242 19.9434L165.935 20.2006ZM167.285 21.1933C167.828 21.4136 168.479 21.52 169.233 21.52V21.12C168.514 21.12 167.918 21.0184 167.436 20.8227L167.285 21.1933ZM169.233 21.52C169.837 21.52 170.389 21.4629 170.886 21.3468L170.795 20.9572C170.333 21.0651 169.812 21.12 169.233 21.12V21.52ZM170.886 21.3468C171.372 21.2333 171.764 21.1095 172.054 20.973L171.883 20.611C171.63 20.7305 171.269 20.8467 170.795 20.9572L170.886 21.3468ZM171.771 20.8249L172.083 22.6969L172.478 22.6311L172.166 20.7591L171.771 20.8249ZM172.175 22.4944C172.066 22.5623 171.899 22.6364 171.665 22.7143L171.792 23.0937C172.038 23.0116 172.239 22.9257 172.387 22.8336L172.175 22.4944ZM171.677 22.7108C171.445 22.7726 171.18 22.8273 170.881 22.8744L170.944 23.2696C171.253 23.2207 171.532 23.1634 171.78 23.0972L171.677 22.7108ZM170.871 22.8763C170.576 22.9385 170.256 22.9854 169.911 23.0168L169.947 23.4152C170.305 23.3826 170.641 23.3335 170.954 23.2677L170.871 22.8763ZM169.9 23.018C169.573 23.0648 169.255 23.088 168.945 23.088V23.488C169.275 23.488 169.612 23.4632 169.957 23.414L169.9 23.018ZM175.397 23H175.197V23.2H175.397V23ZM175.397 4.76L175.363 4.56289L175.197 4.59147V4.76H175.397ZM177.629 4.376H177.829V4.13865L177.595 4.1789L177.629 4.376ZM177.629 10.76H177.429V11.0512L177.701 10.9467L177.629 10.76ZM178.949 10.4L178.983 10.5972L178.988 10.5961L178.949 10.4ZM182.837 10.688L182.756 10.8712L182.76 10.8727L182.837 10.688ZM184.397 11.864L184.237 11.9841L184.241 11.9896L184.397 11.864ZM185.477 23V23.2H185.677V23H185.477ZM183.245 23H183.045V23.2H183.245V23ZM183.077 14.504L182.88 14.5388L182.881 14.5443L183.077 14.504ZM182.573 13.184L182.41 13.3002L182.41 13.3002L182.573 13.184ZM181.613 12.464L181.539 12.6498L181.545 12.6522L181.613 12.464ZM179.381 12.272L179.356 12.0735L179.356 12.0735L179.381 12.272ZM178.637 12.392L178.665 12.5903L178.676 12.5881L178.637 12.392ZM178.013 12.512L177.964 12.3179L177.96 12.319L178.013 12.512ZM177.629 12.632L177.555 12.4463L177.429 12.4966V12.632H177.629ZM177.629 23V23.2H177.829V23H177.629ZM175.597 23V4.76H175.197V23H175.597ZM175.431 4.9571L177.663 4.5731L177.595 4.1789L175.363 4.56289L175.431 4.9571ZM177.429 4.376V10.76H177.829V4.376H177.429ZM177.701 10.9467C178.104 10.7916 178.531 10.675 178.983 10.5971L178.915 10.2029C178.439 10.285 177.986 10.4084 177.557 10.5733L177.701 10.9467ZM178.988 10.5961C179.456 10.5026 179.915 10.456 180.365 10.456V10.056C179.887 10.056 179.402 10.1054 178.91 10.2039L178.988 10.5961ZM180.365 10.456C181.339 10.456 182.134 10.5977 182.756 10.8711L182.917 10.5049C182.228 10.2023 181.375 10.056 180.365 10.056V10.456ZM182.76 10.8727C183.387 11.1326 183.877 11.5037 184.237 11.984L184.557 11.744C184.149 11.2003 183.599 10.7874 182.913 10.5033L182.76 10.8727ZM184.241 11.9896C184.62 12.4588 184.888 13.0301 185.042 13.7083L185.432 13.6197C185.266 12.8899 184.974 12.2612 184.553 11.7384L184.241 11.9896ZM185.042 13.7083C185.198 14.3955 185.277 15.1564 185.277 15.992H185.677C185.677 15.1316 185.596 14.3405 185.432 13.6197L185.042 13.7083ZM185.277 15.992V23H185.677V15.992H185.277ZM185.477 22.8H183.245V23.2H185.477V22.8ZM183.445 23V16.472H183.045V23H183.445ZM183.445 16.472C183.445 15.6952 183.388 15.0249 183.273 14.4637L182.881 14.5443C182.989 15.0711 183.045 15.7128 183.045 16.472H183.445ZM183.274 14.4692C183.174 13.9053 182.998 13.4348 182.736 13.0678L182.41 13.3002C182.628 13.6052 182.787 14.0147 182.88 14.5388L183.274 14.4692ZM182.736 13.0678C182.471 12.6977 182.118 12.4332 181.681 12.2758L181.545 12.6522C181.908 12.7828 182.194 12.9983 182.41 13.3002L182.736 13.0678ZM181.687 12.2783C181.256 12.106 180.733 12.024 180.125 12.024V12.424C180.7 12.424 181.169 12.502 181.539 12.6497L181.687 12.2783ZM180.125 12.024C179.876 12.024 179.62 12.0406 179.356 12.0735L179.406 12.4705C179.654 12.4394 179.894 12.424 180.125 12.424V12.024ZM179.356 12.0735C179.096 12.1061 178.843 12.1469 178.598 12.1959L178.676 12.5881C178.911 12.5411 179.154 12.5019 179.406 12.4705L179.356 12.0735ZM178.609 12.194C178.379 12.2268 178.164 12.2681 177.964 12.318L178.061 12.706C178.246 12.6599 178.447 12.6212 178.665 12.59L178.609 12.194ZM177.96 12.319C177.783 12.3674 177.646 12.4098 177.555 12.4463L177.703 12.8177C177.772 12.7902 177.891 12.7526 178.066 12.705L177.96 12.319ZM177.429 12.632V23H177.829V12.632H177.429ZM177.629 22.8H175.397V23.2H177.629V22.8Z" fill="white"/>
<rect x="2" y="2" width="26.8217" height="25" fill="#201E50" stroke="white" stroke-width="0.8"/>
<path d="M7.88874 14.412L12.1487 16.164L11.8367 17.088L6.65274 14.892V13.932L11.8367 11.736L12.1487 12.66L7.88874 14.412ZM13.6422 20.22H12.5022L16.5702 8.604H17.6862L13.6422 20.22ZM18.0316 12.66L18.3436 11.736L23.5276 13.932V14.892L18.3436 17.088L18.0316 16.164L22.2916 14.412L18.0316 12.66Z" fill="white"/>
</g>
<defs>
<filter id="filter0_d" x="0.600006" y="1.60001" width="186.077" height="28.112" filterUnits="userSpaceOnUse" color-interpolation-filters="sRGB">
<feFlood flood-opacity="0" result="BackgroundImageFix"/>
<feColorMatrix in="SourceAlpha" type="matrix" values="0 0 0 0 0 0 0 0 0 0 0 0 0 0 0 0 0 0 127 0"/>
<feOffset dy="1"/>
<feGaussianBlur stdDeviation="0.5"/>
<feColorMatrix type="matrix" values="0 0 0 0 0 0 0 0 0 0 0 0 0 0 0 0 0 0 0.25 0"/>
<feBlend mode="normal" in2="BackgroundImageFix" result="effect1_dropShadow"/>
<feBlend mode="normal" in="SourceGraphic" in2="effect1_dropShadow" result="shape"/>
</filter>
</defs>
</svg>
